<svg width="30" height="32" viewBox="0 0 30 32" fill="none" xmlns="http://www.w3.org/2000/svg">
<path d="M15 0C11.7452 0 8.62367 1.26428 6.32216 3.51472C4.02065 5.76515 2.72768 8.8174 2.72768 12V18.404L0.097316 24.8387C0.0146456 25.041 -0.0160535 25.2601 0.00790491 25.4767C0.0318634 25.6933 0.109749 25.9009 0.234747 26.0813C0.359746 26.2617 0.528048 26.4093 0.724926 26.5114C0.921805 26.6134 1.14126 26.6667 1.36409 26.6667H9.54564C9.54564 29.6227 11.9769 32 15 32C18.0231 32 20.4544 29.6227 20.4544 26.6667H28.6359C28.8587 26.6667 29.0782 26.6134 29.2751 26.5114C29.472 26.4093 29.6403 26.2617 29.7653 26.0813C29.8903 25.9009 29.9681 25.6933 29.9921 25.4767C30.0161 25.2601 29.9854 25.041 29.9027 24.8387L27.2723 18.404V12C27.2723 8.8174 25.9793 5.76515 23.6778 3.51472C21.3763 1.26428 18.2548 0 15 0ZM17.7272 26.6667C17.7272 28.1493 16.5163 29.3333 15 29.3333C13.4837 29.3333 12.2728 28.1493 12.2728 26.6667H17.7272ZM5.45486 12C5.45486 9.52465 6.46051 7.15068 8.25057 5.40034C10.0406 3.65 12.4685 2.66667 15 2.66667C17.5315 2.66667 19.9594 3.65 21.7494 5.40034C23.5395 7.15068 24.5451 9.52465 24.5451 12V18.66C24.545 18.8294 24.5778 18.9973 24.642 19.1547L26.6219 24H3.37812L5.35805 19.1547C5.422 18.9977 5.45485 18.8303 5.45486 18.6613V12Z" fill="#1E1E1E"/>
</svg>
