<svg width="54" height="54" viewBox="0 0 54 54" fill="none" xmlns="http://www.w3.org/2000/svg">
<path d="M53.3679 22.8205L41.3529 0.71012C41.2341 0.495779 41.0601 0.317142 40.849 0.192758C40.6378 0.0683744 40.3972 0.0027771 40.1522 0.0027771C39.9071 0.0027771 39.6665 0.0683744 39.4554 0.192758C39.2442 0.317142 39.0702 0.495779 38.9514 0.71012L26.9364 22.8205C26.8219 23.0302 26.764 23.266 26.7683 23.5049C26.7726 23.7437 26.8389 23.9773 26.9608 24.1827C27.0827 24.3882 27.256 24.5583 27.4636 24.6765C27.6711 24.7947 27.9059 24.8568 28.1448 24.8568H52.1596C52.3983 24.8565 52.6328 24.7941 52.8401 24.6758C53.0474 24.5575 53.2204 24.3873 53.3421 24.1819C53.4638 23.9765 53.5299 23.7431 53.5341 23.5044C53.5383 23.2657 53.4804 23.0301 53.366 22.8205H53.3679ZM38.7182 7.64879H41.5862V15.2968H38.7182V7.64879ZM40.1522 21.0328C39.774 21.0328 39.4043 20.9207 39.0899 20.7106C38.7755 20.5005 38.5304 20.2019 38.3857 19.8525C38.241 19.5031 38.2031 19.1187 38.2769 18.7478C38.3507 18.3769 38.5328 18.0362 38.8002 17.7688C39.0676 17.5014 39.4083 17.3193 39.7791 17.2455C40.15 17.1718 40.5345 17.2096 40.8839 17.3544C41.2332 17.4991 41.5318 17.7441 41.7419 18.0586C41.952 18.373 42.0642 18.7427 42.0642 19.1208C42.0642 19.6279 41.8627 20.1142 41.5042 20.4728C41.1456 20.8314 40.6593 21.0328 40.1522 21.0328ZM45.8882 32.5048V28.6808H28.6801V49.7129C28.6817 50.7266 29.085 51.6984 29.8018 52.4152C30.5186 53.132 31.4904 53.5354 32.5041 53.5369H38.2402V49.7129H32.5041V32.5048H45.8882ZM19.1201 53.5369H13.3841V49.7129H19.1201V25.939L12.3994 21.9066L14.3688 18.6294L21.0876 22.6599C21.6524 23.0012 22.1199 23.4822 22.4451 24.0565C22.7702 24.6308 22.9421 25.2791 22.9441 25.939V49.7129C22.9431 50.7268 22.5399 51.6988 21.823 52.4158C21.1061 53.1327 20.134 53.5359 19.1201 53.5369Z" fill="#0FA958"/>
<path d="M31.8616 5.74826L33.6972 2.36974C31.0206 0.79035 27.9638 -0.0287274 24.8561 0.000769458C22.1742 0.00857867 19.5413 0.718978 17.2195 2.06119C14.8977 3.40341 12.9682 5.33058 11.6231 7.6507L11.472 7.64879C8.42946 7.64879 5.5115 8.85745 3.36008 11.0089C1.20866 13.1603 0 16.0782 0 19.1208C0 22.1634 1.20866 25.0813 3.36008 27.2328C5.5115 29.3842 8.42946 30.5928 11.472 30.5928V26.7688C9.44365 26.7688 7.49834 25.9631 6.06406 24.5288C4.62978 23.0945 3.82401 21.1492 3.82401 19.1208C3.82401 17.0924 4.62978 15.1471 6.06406 13.7129C7.49834 12.2786 9.44365 11.4728 11.472 11.4728C11.7202 11.4805 11.9675 11.506 12.212 11.5493L13.862 11.7653L14.4528 10.49C15.3739 8.50505 16.8418 6.82376 18.6844 5.64326C20.5269 4.46275 22.6678 3.83195 24.8561 3.82478C27.3254 3.79685 29.7528 4.46334 31.8616 5.74826Z" fill="#0FA958"/>
</svg>
