<svg width="23" height="23" viewBox="0 0 23 23" fill="none" xmlns="http://www.w3.org/2000/svg">
<circle cx="11.5" cy="11.5" r="11.5" fill="#83EAA4"/>
<path fill-rule="evenodd" clip-rule="evenodd" d="M12 5C11.606 5 11.2159 5.07759 10.852 5.22836C10.488 5.37912 10.1573 5.6001 9.87868 5.87868C9.6001 6.15725 9.37913 6.48797 9.22836 6.85195C9.0776 7.21592 9 7.60603 9 8C9 8.39396 9.0776 8.78407 9.22836 9.14805C9.37913 9.51202 9.6001 9.84274 9.87868 10.1213C10.1573 10.3999 10.488 10.6209 10.852 10.7716C11.2159 10.9224 11.606 11 12 11C12.7957 11 13.5587 10.6839 14.1213 10.1213C14.6839 9.55871 15 8.79564 15 8C15 7.20435 14.6839 6.44128 14.1213 5.87868C13.5587 5.31607 12.7957 5 12 5ZM8 8C8.00007 7.23022 8.22226 6.47682 8.63989 5.83019C9.05753 5.18356 9.65288 4.67117 10.3545 4.3545C11.0561 4.03784 11.8342 3.93035 12.5954 4.04493C13.3566 4.15952 14.0686 4.49131 14.6459 5.00049C15.2232 5.50968 15.6413 6.17463 15.8501 6.91555C16.0589 7.65647 16.0494 8.4419 15.8228 9.17758C15.5963 9.91326 15.1623 10.568 14.5729 11.0631C13.9835 11.5582 13.2637 11.8728 12.5 11.969V17.5C12.5 17.6326 12.4473 17.7598 12.3536 17.8535C12.2598 17.9473 12.1326 18 12 18C11.8674 18 11.7402 17.9473 11.6464 17.8535C11.5527 17.7598 11.5 17.6326 11.5 17.5V11.97C10.533 11.8482 9.64369 11.3774 8.99922 10.6462C8.35474 9.91503 7.99942 8.97368 8 7.999V8Z" fill="black"/>
</svg>
