<svg width="32" height="33" viewBox="0 0 32 33" fill="none" xmlns="http://www.w3.org/2000/svg">
<path d="M30.8 13.1083L28 12.1833L27.4 10.6417L28.8 7.96943C29.1 7.35276 29 6.53054 28.5 6.01665L26.1 3.54999C25.6 3.0361 24.8 2.93332 24.2 3.24165L21.6 4.68054L20.1 4.06388L19.2 1.1861C19 0.569431 18.4 0.055542 17.7 0.055542H14.3C13.6 0.055542 13 0.569431 12.9 1.28888L12 4.16665C11.4 4.26943 10.9 4.47499 10.4 4.78332L7.8 3.34443C7.2 3.0361 6.4 3.13888 5.9 3.65276L3.5 6.11943C3 6.63332 2.9 7.45554 3.2 8.07221L4.5 10.6417C4.3 11.1555 4.1 11.7722 3.9 12.2861L1.1 13.2111C0.5 13.4167 0 14.0333 0 14.7528V18.2472C0 18.9667 0.5 19.5833 1.2 19.7889L4 20.7139L4.6 22.2555L3.2 24.9278C2.9 25.5444 3 26.3667 3.5 26.8805L5.9 29.3472C6.4 29.8611 7.2 29.9639 7.8 29.6555L10.4 28.2167L11.9 28.8333L12.8 31.8139C13 32.4305 13.6 32.9444 14.3 32.9444H17.7C18.4 32.9444 19 32.4305 19.2 31.8139L20.1 28.8333L21.6 28.2167L24.2 29.6555C24.8 29.9639 25.6 29.8611 26.1 29.3472L28.5 26.8805C29 26.3667 29.1 25.5444 28.8 24.9278L27.4 22.2555L28 20.7139L30.9 19.7889C31.5 19.5833 32 18.9667 32 18.2472V14.7528C32 14.0333 31.5 13.3139 30.8 13.1083ZM30 17.9389L26.4 19.0694L26.3 19.5833L25.4 21.7417L25.1 22.2555L26.9 25.6472L24.9 27.7028L21.6 25.8528L21.1 26.1611C20.4 26.5722 19.7 26.8805 19 27.0861L18.5 27.1889L17.4 30.8889H14.6L13.5 27.1889L13 27.0861L10.9 26.1611L10.4 25.8528L7.1 27.7028L5.1 25.6472L6.9 22.2555L6.6 21.7417C6.2 21.0222 5.9 20.3028 5.7 19.5833L5.6 19.0694L2 17.9389V15.0611L5.4 14.0333L5.6 13.5194C5.8 12.6972 6.1 11.9778 6.5 11.2583L6.8 10.7444L5.1 7.35276L7.1 5.29721L10.3 7.14721L10.8 6.83888C11.5 6.42776 12.2 6.11943 13 5.91388L13.5 5.70832L14.6 2.1111H17.4L18.5 5.70832L19 5.91388C19.7 6.11943 20.4 6.42776 21.1 6.83888L21.6 7.14721L24.9 5.29721L26.9 7.35276L25.1 10.7444L25.4 11.2583C25.8 11.9778 26.1 12.6972 26.3 13.4167L26.4 13.9305L30 15.0611V17.9389Z" fill="#1E1E1E"/>
</svg>
