<svg width="36" height="37" viewBox="0 0 36 37" fill="none" xmlns="http://www.w3.org/2000/svg">
<g clip-path="url(#clip0_45_124)">
<path d="M18.1 11.3055C14.2 11.3055 11.1 14.4917 11.1 18.5C11.1 22.5083 14.2 25.6944 18.1 25.6944C22 25.6944 25.1 22.5083 25.1 18.5C25.1 14.4917 22 11.3055 18.1 11.3055ZM18.1 23.6389C15.3 23.6389 13.1 21.3778 13.1 18.5C13.1 15.6222 15.3 13.3611 18.1 13.3611C20.9 13.3611 23.1 15.6222 23.1 18.5C23.1 21.3778 20.9 23.6389 18.1 23.6389Z" fill="#1E1E1E"/>
<path d="M32.8 15.1083L30 14.1833L29.4 12.6417L30.8 9.96943C31.1 9.35276 31 8.53054 30.5 8.01665L28.1 5.54999C27.6 5.0361 26.8 4.93332 26.2 5.24165L23.6 6.68054L22.1 6.06388L21.2 3.1861C21 2.56943 20.4 2.05554 19.7 2.05554H16.3C15.6 2.05554 15 2.56943 14.9 3.28888L14 6.16665C13.4 6.26943 12.9 6.47499 12.4 6.78332L9.8 5.34443C9.2 5.0361 8.4 5.13888 7.9 5.65276L5.5 8.11943C5 8.63332 4.9 9.45554 5.2 10.0722L6.5 12.6417C6.3 13.1555 6.1 13.7722 5.9 14.2861L3.1 15.2111C2.5 15.4167 2 16.0333 2 16.7528V20.2472C2 20.9667 2.5 21.5833 3.2 21.7889L6 22.7139L6.6 24.2555L5.2 26.9278C4.9 27.5444 5 28.3667 5.5 28.8805L7.9 31.3472C8.4 31.8611 9.2 31.9639 9.8 31.6555L12.4 30.2167L13.9 30.8333L14.8 33.8139C15 34.4305 15.6 34.9444 16.3 34.9444H19.7C20.4 34.9444 21 34.4305 21.2 33.8139L22.1 30.8333L23.6 30.2167L26.2 31.6555C26.8 31.9639 27.6 31.8611 28.1 31.3472L30.5 28.8805C31 28.3667 31.1 27.5444 30.8 26.9278L29.4 24.2555L30 22.7139L32.9 21.7889C33.5 21.5833 34 20.9667 34 20.2472V16.7528C34 16.0333 33.5 15.3139 32.8 15.1083ZM32 19.9389L28.4 21.0694L28.3 21.5833L27.4 23.7417L27.1 24.2555L28.9 27.6472L26.9 29.7028L23.6 27.8528L23.1 28.1611C22.4 28.5722 21.7 28.8805 21 29.0861L20.5 29.1889L19.4 32.8889H16.6L15.5 29.1889L15 29.0861L12.9 28.1611L12.4 27.8528L9.1 29.7028L7.1 27.6472L8.9 24.2555L8.6 23.7417C8.2 23.0222 7.9 22.3028 7.7 21.5833L7.6 21.0694L4 19.9389V17.0611L7.4 16.0333L7.6 15.5194C7.8 14.6972 8.1 13.9778 8.5 13.2583L8.8 12.7444L7.1 9.35276L9.1 7.29721L12.3 9.14721L12.8 8.83888C13.5 8.42776 14.2 8.11943 15 7.91388L15.5 7.70832L16.6 4.1111H19.4L20.5 7.70832L21 7.91388C21.7 8.11943 22.4 8.42776 23.1 8.83888L23.6 9.14721L26.9 7.29721L28.9 9.35276L27.1 12.7444L27.4 13.2583C27.8 13.9778 28.1 14.6972 28.3 15.4167L28.4 15.9305L32 17.0611V19.9389Z" fill="#1E1E1E"/>
</g>
<defs>
<clipPath id="clip0_45_124">
<rect width="36" height="37" fill="white"/>
</clipPath>
</defs>
</svg>
