<svg width="31" height="41" viewBox="0 0 31 41" fill="none" xmlns="http://www.w3.org/2000/svg">
<path d="M19.2188 0C19.5586 0 19.8845 0.134988 20.1247 0.375269C20.365 0.61555 20.5 0.941441 20.5 1.28125C20.5 1.62106 20.635 1.94695 20.8753 2.18723C21.1155 2.42751 21.4414 2.5625 21.7812 2.5625C22.1211 2.5625 22.447 2.69749 22.6872 2.93777C22.9275 3.17805 23.0625 3.50394 23.0625 3.84375V5.125C23.0625 5.46481 22.9275 5.7907 22.6872 6.03098C22.447 6.27126 22.1211 6.40625 21.7812 6.40625H8.96875C8.62894 6.40625 8.30305 6.27126 8.06277 6.03098C7.82249 5.7907 7.6875 5.46481 7.6875 5.125V3.84375C7.6875 3.50394 7.82249 3.17805 8.06277 2.93777C8.30305 2.69749 8.62894 2.5625 8.96875 2.5625C9.30856 2.5625 9.63445 2.42751 9.87473 2.18723C10.115 1.94695 10.25 1.62106 10.25 1.28125C10.25 0.941441 10.385 0.61555 10.6253 0.375269C10.8656 0.134988 11.1914 0 11.5312 0L19.2188 0Z" fill="black"/>
<path d="M2.5625 6.40625C2.5625 6.06644 2.69749 5.74055 2.93777 5.50027C3.17805 5.25999 3.50394 5.125 3.84375 5.125H5.125C5.46481 5.125 5.7907 4.99001 6.03098 4.74973C6.27126 4.50945 6.40625 4.18356 6.40625 3.84375C6.40625 3.50394 6.27126 3.17805 6.03098 2.93777C5.7907 2.69749 5.46481 2.5625 5.125 2.5625H3.84375C2.82432 2.5625 1.84665 2.96747 1.12581 3.68831C0.404965 4.40915 0 5.38682 0 6.40625V37.1562C0 38.1757 0.404965 39.1534 1.12581 39.8742C1.84665 40.595 2.82432 41 3.84375 41H26.9062C27.9257 41 28.9033 40.595 29.6242 39.8742C30.345 39.1534 30.75 38.1757 30.75 37.1562V6.40625C30.75 5.38682 30.345 4.40915 29.6242 3.68831C28.9033 2.96747 27.9257 2.5625 26.9062 2.5625H25.625C25.2852 2.5625 24.9593 2.69749 24.719 2.93777C24.4787 3.17805 24.3438 3.50394 24.3438 3.84375C24.3438 4.18356 24.4787 4.50945 24.719 4.74973C24.9593 4.99001 25.2852 5.125 25.625 5.125H26.9062C27.2461 5.125 27.572 5.25999 27.8122 5.50027C28.0525 5.74055 28.1875 6.06644 28.1875 6.40625V37.1562C28.1875 37.4961 28.0525 37.8219 27.8122 38.0622C27.572 38.3025 27.2461 38.4375 26.9062 38.4375H3.84375C3.50394 38.4375 3.17805 38.3025 2.93777 38.0622C2.69749 37.8219 2.5625 37.4961 2.5625 37.1562V6.40625Z" fill="black"/>
<path d="M22.6883 20.1259C22.9289 19.8853 23.064 19.559 23.064 19.2188C23.064 18.8785 22.9289 18.5522 22.6883 18.3116C22.4477 18.071 22.1214 17.9359 21.7812 17.9359C21.4409 17.9359 21.1146 18.071 20.874 18.3116L14.0937 25.0946L11.157 22.1554C10.9165 21.9148 10.5901 21.7796 10.2499 21.7796C9.90967 21.7796 9.58337 21.9148 9.34278 22.1554C9.1022 22.396 8.96704 22.7223 8.96704 23.0625C8.96704 23.4027 9.1022 23.729 9.34278 23.9696L13.1865 27.8134C13.3056 27.9327 13.4469 28.0274 13.6026 28.092C13.7583 28.1565 13.9251 28.1898 14.0937 28.1898C14.2622 28.1898 14.4291 28.1565 14.5847 28.092C14.7404 28.0274 14.8818 27.9327 15.0008 27.8134L22.6883 20.1259Z" fill="black"/>
</svg>
